<svg id="Layer_1" data-name="Layer 1" xmlns="http://www.w3.org/2000/svg" viewBox="0 0 172.76 181.52"><defs><style>.cls-1,.cls-5{fill:#f45197;}.cls-1,.cls-3{fill-rule:evenodd;}.cls-2{fill:#002856;}.cls-3,.cls-4{fill:#fff;}</style></defs><path class="cls-1" d="M17.76,28.31c.07.09,1.12,1.09,1.12,1.09l-.32,3,.35,2.24.57,2.3V40l.48.11v86H174.65v-82A5.31,5.31,0,0,0,170.88,39l-72-21.89a5.25,5.25,0,0,0-3.09,0L56,29.18l-.59-.85-1.1-1.67-1.79-4.74-.83-2.7L51,17.52l-.61-.76-.45-.8L49,15.78l-.59,1-.71-.06-.91-1.12H46l-.38.39-1.49-.35L43.8,16s.5,1.64.62,1.89-.58-.48-.58-.48l-.9-.23-.32.67,0,.65.33.89s1.25,2.21,1.33,2.34.43,1.47.6,1.77-1.07-.18-1.26-.17l-1.89-.11-.77,1,.38,1.36,1.32,1.82s4.07,2.49,4.23,2.53,1.33.82,2.3,1.3L26,38.3l.69-.74.12-4.46.46-2,1-3.45-1.64-1.17-3-2.08-1-2-.32-.81-.67-1.1-.72.24,0,.69s.13.9.16,1,.17.87.17.93a4.87,4.87,0,0,1-.53-.5s-1.24-1.33-1.29-1.37-.53.28-.53.28,0,.93,0,1,.36,1.2.39,1.25S19,24,19,24l-1-.81-.7.26s.29,1.25.31,1.3.22.68.22.68l-1.08.13-.3.54a8.25,8.25,0,0,1,.49,1.09A7.66,7.66,0,0,0,17.76,28.31Z" transform="translate(-12.83 -8.45)"/><path class="cls-2" d="M176.07,164.7l5.7-5.7V131.82a5.69,5.69,0,0,0-5.69-5.69H18.52a5.69,5.69,0,0,0-5.69,5.69V159l5.7,5.7c2-.5,3.93-1,5.91-1.44l.69-.17c2.27-.52,4.55-1,6.84-1.49l2.23-.44c1.67-.34,3.36-.66,5-1l2.26-.41q3.33-.59,6.69-1.11l.41-.07c2.37-.36,4.74-.68,7.12-1,.73-.1,1.46-.18,2.2-.27,1.75-.22,3.51-.42,5.27-.61l2.22-.23c2.36-.23,4.73-.45,7.1-.63l.18,0q3.66-.27,7.32-.46l2.19-.1c1.82-.09,3.64-.16,5.47-.21.73,0,1.46-.05,2.2-.06,2.47-.06,4.95-.1,7.43-.1s5,0,7.44.1l2.2.06c1.82,0,3.65.12,5.47.21l2.18.1q3.68.2,7.32.46l.18,0c2.38.18,4.74.4,7.1.63l2.22.23c1.76.19,3.52.39,5.28.61.73.09,1.47.17,2.2.27,2.38.31,4.75.63,7.11,1l.42.07c2.24.35,4.46.72,6.69,1.11l2.25.41q2.53.47,5,1l2.22.44c2.29.48,4.58,1,6.85,1.49l.69.17Q173.13,164,176.07,164.7Z" transform="translate(-12.83 -8.45)"/><path class="cls-3" d="M132.77,50.69c.28.16,2.74,2,1.79,2.07-.47,0-1.18-1-2.45-1-2.19-.13-3,2.25-2.09,4.24.73,1.58,2,2.05,3.44,2.87A21.2,21.2,0,0,1,136.73,61a68.55,68.55,0,0,1,8,6.36c.42.39.89,1,1.54.55.43-.27.15-.75.63-.91s.51.06.84-.31-.1-.81-.44-1.09c-2.26-1.94-6.79-5.53-8.08-7.49a24.9,24.9,0,0,1-1-2.93,7.36,7.36,0,0,0-5.44-4.52" transform="translate(-12.83 -8.45)"/><path class="cls-3" d="M135.41,70.77l3.23.41.49.45v-.5A38.08,38.08,0,0,1,143.89,75s9.33,8.81,14.26,11.48c.74,5.74,2.39,8.36,8.09,10,6.27.37,5.47-10.23,2.34-12.41a46.64,46.64,0,0,1-4.45-5.7s-2.11-3.17-2.9-4.58c0,0-2.63-4.29-5.11-6.18a26.76,26.76,0,0,1-2.58-3.31,30,30,0,0,0-3-3.88s-.17-4.81-1.9-5.5v-.41c2.56-.12,4.59-2.35,5.22-4.82a6.3,6.3,0,0,0,.19-1.92,4.72,4.72,0,0,0,.32-3.86,4.69,4.69,0,0,1-.18-2,8.56,8.56,0,0,0-1.63-5.67c-3.51-5-11.6-6-15.86-1.55a11.93,11.93,0,0,0-6.08-1.33c-5.12.6-8.37,4.38-12.69,4L120.5,39s-1.11.66-4.6,0l.52.43c.43.35.85.72,1.25,1.1,3.31.06,5.88,0,8.68-2.26,0,0-2.61-.16-3.58-.24,0,0,8.87-6.18,14.35-1a6.81,6.81,0,0,1,5.39-3.67c3.92-.3,7.88,1.27,9.52,4.89.9,2,0,4,.63,5.38a5.15,5.15,0,0,1,.56,1.6c.22,1.52-.5,1-1.09,1.3A.38.38,0,0,0,152,47a.37.37,0,0,0,.15.23,1.67,1.67,0,0,1,.26,2.12c-.15.35-.39.33-.46.68a4.53,4.53,0,0,1,0,.53,3.42,3.42,0,0,0-.14.36,2.22,2.22,0,0,1-.39,1,4.49,4.49,0,0,1-4.46,1.14,2.05,2.05,0,0,0-1.77.2,7.25,7.25,0,0,1,3.95,7.18l5.75,8a40.94,40.94,0,0,1,8.43,11.26A27.26,27.26,0,0,0,167,84.45s2.33,1.84,2.28,4.4c1.9,9.8-10,5.75-9.37-2.82L137.62,69.11Z" transform="translate(-12.83 -8.45)"/><path class="cls-3" d="M147.23,42.41a2.58,2.58,0,0,1,3.15.22,2.24,2.24,0,0,1-3.15-.22m-.56-.84c1.24-1.37,3.27-2.15,4.31-.16a13.83,13.83,0,0,0-4.31.16m-6.37,3.75s-.23-2.37.54-2.47c.34,0,.59.54.79.82l.72,1c1.44,2-.6,3.76-2.47,2.3l-1.38,1.21-.62.93-.49,1,1.81,2s1.13-.47,2.32-3.7l1.25-.64v.83c1.35,1.24,5.78,4,7.54,2.64a1.05,1.05,0,0,0,.35-.49.48.48,0,0,0-.13-.58c-.34-.16-.42-.75.09-.75.36,0,.66,0,.67-.53L150,48.7c-.95-.14-1.15-.71-.19-.68a4.92,4.92,0,0,0,1.72,0c.41-.19-.21-.62-.39-.74a2.24,2.24,0,0,1-.39-.27.7.7,0,0,1,.08-1.16c.37-.19.59,0,.95-.06.21,0,.43-.08.45-.32s-.4-.75-.53-1.43a5.53,5.53,0,0,1,0-1.22,8.78,8.78,0,0,0-1.27-5.21,2.08,2.08,0,0,0-1.19-.83c-2.93-.62-2.55,4.36-4.78,4.61.17,2.18-1.33,2.81-2.27,1.94-.44-.42-.49-.95-1.17-1.2-1.26-.47-2.57,1.54-.73,3.19" transform="translate(-12.83 -8.45)"/><path class="cls-3" d="M44.28,15.84A.54.54,0,0,1,45,16a7.17,7.17,0,0,1,.45.92l1.81,3.31a5.37,5.37,0,0,1,.53,1.14c.14.54.31,1.49-.14,1.85,0,0-1.7-3.57-3.12-6-.19-.33-.69-1.14-.23-1.4M17.77,26l1.8,1.72s.39.49.67.23c.52-.42-2.1-3.3-2.54-3.87,0,0-.39-.48,0-.75,0,0,.35-.22.91.56l1.89,2.33c.1.12.24.34.39.49.3.31.64.12.49-.26a7,7,0,0,0-.47-.75l-1.65-2.86s-.57-.89,0-1.16c0,0,.47-.23,1,.93,0,0,1.89,3.71,2.42,3.41,0,0,.51-.13-.14-1,0,0-2.19-4-1.28-4.3,0,0,.52-.32,1.1,1.5,0,0,1.08,3.46,2,4.46l.18,3.76a6.19,6.19,0,0,1-1.17-2.29s-1.39,4-.75,6c.2.65.34.59.34,1.33V50.9c0,3.57.89,3.73,3.59,5.76s6.19,5.06,8.87,6.72c.34.2.87.4,1.09-.08a.79.79,0,0,0,0-.37V61.77c0-.26.14-.41.28-.38.41.09.5,2.75.49,3.13.29-.35,2.82-3.28,3.68-4.39.25-.32.49-.53,0-.8-1.08-.58-4.8-.53-5.39-.68a8.32,8.32,0,0,1-2.17-1.27L28.65,54.3c-.62-.4-1.69-.9-2-1.6a21.46,21.46,0,0,1-.41-2.56l-1.42-8.23a33.11,33.11,0,0,1-.49-5.45,10.69,10.69,0,0,0,.31-1.76,7.77,7.77,0,0,1,.08-2.63c.29-.93,1.62-3.29,1.52-4.91,0,0,1.67-.31,1.3,1.47-.27,1.34-1.87,4.08-1.85,5.52a28.36,28.36,0,0,0,.09,4.16l1.81,11.13a14.42,14.42,0,0,0,.39,2.1,2.82,2.82,0,0,0,1.39,1.58l5.74,3.52a2.62,2.62,0,0,0,1.7.32,9.82,9.82,0,0,1,4,.4,2.44,2.44,0,0,1,.77.34,9,9,0,0,0,1.24.69c.29.13.87.43,1.09.08.08-.11.11-.28-.07-.52a3.42,3.42,0,0,1-.57-1.14.58.58,0,0,0-.53-.58s-2.52-.09-3.56-1.19a1.43,1.43,0,0,1-.57-1.44c.15-.54.26-.48.07-1.08a.59.59,0,0,1,0-.47c.11-.14.37-.17.27-.54,0-.15-.22-.2-.32-.33a.3.3,0,0,1,0-.41,3.15,3.15,0,0,0,.28-.25c.1-.11.14-.28,0-.59s-.58-.5-.62-1,1.08-1.65,1.46-2.1a1.11,1.11,0,0,0,.21-1C38.27,35,53,37.62,54.87,42h3.26s-5.56-8.84-8.8-11.45c0,0-3.45-1.55-4.38-2.16,0,0-4.4-2.54-3.45-4.11,0,0,.81-1.93,4.21.71l.48-.09a40.8,40.8,0,0,0-1.95-3.78,9,9,0,0,1-1.44-3c-.11-.69.36-1,.89-.47a20.45,20.45,0,0,1,1.58,2.64,10.86,10.86,0,0,1,1.5,4.23s3.32,1.09,3.62,3.58a15,15,0,0,0-3.1-1.77c-.55-.17-.65,0-1.27-.21L42.91,25l3.52,2.69,4,1.84S62,42.82,63.5,45.5l-1.19.15s-5,10.4-5.39,14.29a4.26,4.26,0,0,0,1.32-1.47A51.19,51.19,0,0,0,58.08,64c5.68-7.48,5.48-15.38,8.69-20.21,0,0-5.2-7.2-8.09-9.64,0,0-4.2-3.93-5.27-5.3-.14-.18-.12-.22-.32-.31-.48-.22-.6-.48-.25-.76.15-.13.11-.14,0-.35-.43-1.06-1.91-4.83-2.31-5.51,0,0-.25-3.21-1-3.92a34.61,34.61,0,0,1,.5,4,.92.92,0,0,1,0,.35c-.06.14-.22.11-.22-.11s-.17-.54-.42-.27a2.43,2.43,0,0,0-.34.61,20.83,20.83,0,0,0-2.43-5.18c-.45-.71-.82-1.52-.33-1.79,0,0,.6-.37,1.36,1.46a15.14,15.14,0,0,0,1.5,3.14,2.34,2.34,0,0,0-.07-1.06,9,9,0,0,1-.45-1.61,2.59,2.59,0,0,1,0-.88c.3-1.27,1.23-.4,1.65.34a17.14,17.14,0,0,1,1.28,3.11s2.15,6.88,3,7.8c0,0,5,5.19,6.29,6.38,0,0,5.4,4.79,7,8,0,0,1.16,1.23.33,3.93-.88,2.28-2.41,7.71,1.94,6.73a28.44,28.44,0,0,1,52.44-1.18h0a9.63,9.63,0,0,1,2.1-1.71c4.42-4.62,10.7-3.21,10.7-3.21,1.19.16,1.09-.21,1.09-.21-2.38-3.44-.52-7.37-.52-7.37l-1.31.69c-.55.17-.86,1-.86,1-.77,2.2-4.18,4.77-6.39,5.25a7.2,7.2,0,0,1-6.52-2.3A31.06,31.06,0,0,0,69.2,48.66h0a6.17,6.17,0,0,1,.42-2.31,5.87,5.87,0,0,0-.94-5.68,56,56,0,0,0-4.6-5.54c-5.84-5-9.75-7.12-11.76-14.38-.34-1.24-1.86-6.83-4-4.61-.22.22-.33.17-.42.06-.37-.43-.73-.94-1.31-1a.73.73,0,0,0-.75.34c-.14.19-.2.37-.39.23l-.18-.13a.93.93,0,0,0-1.38.14c-.48.53,0,1-.19,1.24s-.69-.09-1.09.26-.55.94.12,2.08c.86,1.6,3.18,5.05.13,3.74a1.74,1.74,0,0,0-1.91.79c-1.92,2.64,5.5,6.25,7.4,7.17,0,0,5,4.95,5.6,7.54-6-2.87-16-2.61-15.77,6a24,24,0,0,1-.36,2.71,8.1,8.1,0,0,0-.55,2.32,9.34,9.34,0,0,0,0,3.14,5.43,5.43,0,0,1,.22,1.89c-.08,1-.63.87-1.49.57a28,28,0,0,1-3.68-1.9c-2.82-1.57-2.64-1.59-3.38-4.86a83.83,83.83,0,0,1-1.48-9.42,38.26,38.26,0,0,1-.36-6.51s2.4-4.18,2.24-5.36c-2.55-1.25-6.29-2-6.6-5.08a3.56,3.56,0,0,1-.38-.79C21.79,19.91,20,20.11,21,22.6c-1.67-2.26-3.05-1-1.92,1,0,0-1.23-1-1.74-.44,0,0-.74.49.27,2,.13.19.17.26-.05.26-2.42,0-.46,2.15.72,3.37.43.44.29.34.19.88a14.15,14.15,0,0,0-.17,3.85c.16,1.11.71,1.63.67,2.79-.15,5.17-.35,10.35-.49,15.53a11.75,11.75,0,0,0,0,2.65c.54,2.13,3.32,6.72,15.68,14.26-2.23,7.42,3.15,15.69,5,22.87A10.83,10.83,0,0,0,39.59,88C38,83.83,33,72.61,36,68.08c0,0-13.24-8.2-15.44-12.35a7.19,7.19,0,0,1-.42-2.82c-.14-2.4-.35-6.59-.25-8.91,0-2.53.2-4.91.33-7.4a2.61,2.61,0,0,0-.12-1c-.15-.37-.57-.65-.8-1.08a4.2,4.2,0,0,1-.41-2.3c0-1,.14-2.45.07-3.2s-.78-1-1.28-1.47c-1.63-1.55-.87-2.19-.16-1.72a1.32,1.32,0,0,1,.28.25" transform="translate(-12.83 -8.45)"/><path class="cls-3" d="M55.56,47.24a7.81,7.81,0,0,0,1.9,2.81L55.8,54a27.49,27.49,0,0,1-3,2.29l-.32-2.81S54.8,52,55.12,50.14a13.55,13.55,0,0,0,.44-2.9" transform="translate(-12.83 -8.45)"/><path class="cls-3" d="M49.9,46.84c3.33-1,1.39,4.2-.2,3.31.9-.82,1.7-2.64.2-3.31" transform="translate(-12.83 -8.45)"/><path class="cls-3" d="M40,52h.82s.31,0,.33-.37a.3.3,0,0,0-.35-.31s-.8.18-.8-.5a.35.35,0,0,1,.32-.32A1.57,1.57,0,0,0,41,50a1.14,1.14,0,0,0,.16-.81H39.78a.36.36,0,0,1-.25-.59s1.37-1.35,1.41-2.15c.05-1.71-.35-4.46,1.62-5.3a1.31,1.31,0,0,1,1.72.56c.41.68.62,3-1,3a2.21,2.21,0,0,0-1.82.43.87.87,0,0,0,.15,1.24,3.12,3.12,0,0,0,1.82.38s1.77.38.75,1.64c-2.12,2-.44,3.73-1.48,5.19a2.4,2.4,0,0,1-2.21.67.91.91,0,0,1-.7-.56.75.75,0,0,1,.06-.59c.14-.16.37-.13.45-.33a.34.34,0,0,0,0-.21c-.06-.24-.23-.18-.41-.23s-.27-.11-.23-.29S39.86,52,40,52" transform="translate(-12.83 -8.45)"/><path class="cls-3" d="M45.06,57.37a7.07,7.07,0,0,0,2.34-1.9l.2,5-1.93,2.11s-.23-4.43-.61-5.18" transform="translate(-12.83 -8.45)"/><path class="cls-3" d="M55.11,57.53,53.91,59s-.58,5.11,1.45,7a42.68,42.68,0,0,1-.25-8.54" transform="translate(-12.83 -8.45)"/><path class="cls-4" d="M80,118.82H56.38v-7.71H62l-1.24-4H48.67l-1.24,4H52v7.71H33.3v-7.71h4l8-25.86H42.84v-7.6H65.45l10.43,33.46H80ZM50.84,100h7.72L54.67,87.31Z" transform="translate(-12.83 -8.45)"/><path class="cls-4" d="M98.78,106.24a21.3,21.3,0,0,1,.66-3.27,30.81,30.81,0,0,1,1.48-4.28l5.38-13h-3.08V78H120v7.72h-2.9l-14.21,33.8H92L76.29,85.74H73V78H94.88v7.72H91.62l5,13.31c.48,1.47.88,2.82,1.22,4.07a20.44,20.44,0,0,1,.62,3.12Z" transform="translate(-12.83 -8.45)"/><path class="cls-4" d="M160.31,118.82H136.7v-7.71h5.59l-1.24-4H129l-1.23,4h4.59v7.71H113.61v-7.71h4l7.95-25.86h-2.42v-7.6h22.62l10.42,33.46h4.12ZM131.16,100h7.72L135,87.31Z" transform="translate(-12.83 -8.45)"/><path class="cls-2" d="M97.3,156.8a321.9,321.9,0,0,0-60.45,5.72,1.15,1.15,0,0,0-.93,1.13v14.63a1.14,1.14,0,0,0,.95,1.12L97.11,190a1.27,1.27,0,0,0,.39,0l60.24-10.56a1.13,1.13,0,0,0,.94-1.12V163.65a1.15,1.15,0,0,0-.93-1.13A321.82,321.82,0,0,0,97.3,156.8Z" transform="translate(-12.83 -8.45)"/><path class="cls-4" d="M42.38,151.08c-2.56.35-5.13.72-7.69,1.12-.13-.82-.26-1.64-.38-2.47l1.83-.28-.6-1.22-4,.62c-.06.45-.13.9-.19,1.35l1.5-.24.39,2.46c-2,.33-4.06.66-6.08,1-.15-.82-.29-1.64-.43-2.46l1.31-.23c.39-2.9.8-5.79,1.24-8.69l-.81.13c-.13-.81-.27-1.62-.4-2.42,2.53-.43,5.06-.82,7.59-1.2q2.55,5.1,5,10.22l1.36-.18Zm-10.45-4.6,2.55-.4c-.64-1.29-1.28-2.58-1.93-3.87C32.34,143.63,32.13,145.06,31.93,146.48Z" transform="translate(-12.83 -8.45)"/><path class="cls-4" d="M48.91,139.31l-1.06.12.36,3.09c1.1-1.18,2.2-2.34,3.31-3.51l-1.42.16c-.09-.81-.19-1.63-.28-2.44,2.21-.25,4.41-.49,6.62-.7l.24,2.45-1.15.11-2.61,2.67c1.54,1.84,3,3.7,4.55,5.57l1.13-.11c.08.82.15,1.64.23,2.47-2.5.23-5,.49-7.51.78-.09-.82-.18-1.64-.28-2.47l1.32-.14-2.46-3-1.31,1.37c.09.67.17,1.35.25,2l1-.12c.1.82.19,1.64.29,2.46q-3,.35-6.06.75l-.32-2.46,1-.13c-.36-2.78-.71-5.55-1.07-8.32l-1.07.14c-.1-.82-.21-1.63-.32-2.44,2.09-.28,4.17-.53,6.26-.78C48.72,137.68,48.82,138.49,48.91,139.31Z" transform="translate(-12.83 -8.45)"/><path class="cls-4" d="M75.87,147.93q-3.87.21-7.74.48L68,145.92l1.84-.12c-.16-.43-.33-.85-.49-1.27l-4,.29-.3,1.33,1.51-.12c.06.83.13,1.66.19,2.49q-3.07.22-6.13.51c-.08-.83-.15-1.66-.23-2.49l1.32-.12c.63-2.85,1.28-5.71,2-8.56l-.81.07-.21-2.45c2.55-.22,5.1-.4,7.66-.57q2.1,5.29,4.13,10.6l1.36-.07C75.78,146.27,75.83,147.1,75.87,147.93Zm-10-5.45,2.57-.18-1.59-4C66.5,139.68,66.17,141.08,65.85,142.48Z" transform="translate(-12.83 -8.45)"/><path class="cls-4" d="M77,134.54c2.16-.11,4.32-.19,6.48-.27a10.38,10.38,0,0,1,2.82.23,4.25,4.25,0,0,1,1.71.79,2.65,2.65,0,0,1,.84,1.24,5.33,5.33,0,0,1,.24,1.53,2.4,2.4,0,0,1-.2,1,2.58,2.58,0,0,1-.58.84,3.34,3.34,0,0,1-.89.61,4.14,4.14,0,0,1-1.13.35,3,3,0,0,1,1,.28,3.29,3.29,0,0,1,.83.59,2.91,2.91,0,0,1,.59.8,2.2,2.2,0,0,1,.23,1,3.61,3.61,0,0,0,.12.95c.07.23.19.34.37.34s.45-.21.44-.62c0-.21,0-.42,0-.63l1.31,0c0,.35,0,.7,0,1a4.33,4.33,0,0,1-.12,1.14,2.38,2.38,0,0,1-.45,1,2.31,2.31,0,0,1-.86.7,3.21,3.21,0,0,1-1.34.28,3.87,3.87,0,0,1-2.86-.86,3.58,3.58,0,0,1-1-2.59,7.11,7.11,0,0,0-.09-1.06,1.19,1.19,0,0,0-.29-.65,1,1,0,0,0-.6-.31,4.08,4.08,0,0,0-1-.06c0,1,.07,2,.11,3l1.19,0c0,.84,0,1.68.08,2.51q-3.12.1-6.24.26l-.12-2.52,1.08-.05c-.12-2.77-.25-5.53-.37-8.3l-1.11.05Zm5.31,2.25L82.4,140l.88,0a2.24,2.24,0,0,0,1.37-.43,1.39,1.39,0,0,0,.48-1.17,1.63,1.63,0,0,0-.5-1.26,1.94,1.94,0,0,0-1.36-.38Z" transform="translate(-12.83 -8.45)"/><path class="cls-4" d="M101,149.66a2.53,2.53,0,0,1-.13.7,1.79,1.79,0,0,1-.4.62,1.83,1.83,0,0,1-.72.44,2.87,2.87,0,0,1-1.09.17,3.74,3.74,0,0,1-.91-.12,3.45,3.45,0,0,1-.77-.26l.61-1.19a2.1,2.1,0,0,0,.92.22c.43,0,.64-.15.64-.46s-.21-.46-.63-.46h-.31l-.23,0c-.07-.11-.13-.22-.19-.33.15-.48.29-1,.44-1.44a7,7,0,0,1-2.3-.72,6,6,0,0,1-1.76-1.39,6.34,6.34,0,0,1-1.15-2,8.14,8.14,0,0,1-.43-2.6,7.15,7.15,0,0,1,2-5.17,6.46,6.46,0,0,1,2-1.39,5,5,0,0,1,2-.48,4.39,4.39,0,0,1,1.28.18,4.55,4.55,0,0,1,.93.4,2.72,2.72,0,0,1,.58.44l.27.3c.16-.35.31-.71.47-1.06l3.14,0c0,1.8-.07,3.6-.11,5.41l-3.53,0a3.84,3.84,0,0,0-.14-.9,2.83,2.83,0,0,0-.38-.78,1.9,1.9,0,0,0-.63-.53,1.92,1.92,0,0,0-.92-.21,1.65,1.65,0,0,0-1,.29,2.45,2.45,0,0,0-.75.81,4.35,4.35,0,0,0-.47,1.2,5.81,5.81,0,0,0-.17,1.47,4.64,4.64,0,0,0,.19,1.35,3.69,3.69,0,0,0,.54,1.15,2.8,2.8,0,0,0,.89.79,2.42,2.42,0,0,0,1.22.3,2.52,2.52,0,0,0,1.15-.26,4.81,4.81,0,0,0,1-.59,6.14,6.14,0,0,0,.68-.62l.33-.36,2.24,2.47a8.38,8.38,0,0,1-2.4,1.77,8,8,0,0,1-1.51.58,7.74,7.74,0,0,1-1.69.25c-.09.2-.18.39-.28.59a1.68,1.68,0,0,1,1.09.45A1.31,1.31,0,0,1,101,149.66Z" transform="translate(-12.83 -8.45)"/><path class="cls-4" d="M107.37,134.17c4,.1,8,.26,12,.47-.07,1.4-.14,2.8-.22,4.2l-3.41-.16c0-.57,0-1.13.07-1.7l-3.17-.13c0,.88-.07,1.76-.1,2.63l3.74.16c0,.84-.07,1.69-.11,2.53l-3.72-.15-.12,3.1,3.11.13.08-1.77,3.38.16c-.08,1.44-.15,2.87-.23,4.3q-5.82-.3-11.65-.44l.06-2.54,1.22,0c.08-2.76.15-5.51.23-8.27l-1.25,0Z" transform="translate(-12.83 -8.45)"/><path class="cls-4" d="M128.86,150.48a2,2,0,0,1-.18.69,1.58,1.58,0,0,1-.44.59,2.09,2.09,0,0,1-.74.4,3.12,3.12,0,0,1-1.1.09,3.68,3.68,0,0,1-.9-.18,4.34,4.34,0,0,1-.76-.32c.23-.38.46-.76.7-1.14a2.35,2.35,0,0,0,.9.28c.43,0,.65-.11.67-.41s-.18-.48-.6-.51h-.54l-.17-.33c.17-.44.34-.87.52-1.31a4.64,4.64,0,0,1-1.13-.71,5.22,5.22,0,0,1-.77-.81c-.1.48-.21,1-.31,1.45l-3.38-.21c.09-1.6.19-3.2.28-4.8l3.63.23a1.68,1.68,0,0,0,.21,1,2,2,0,0,0,.61.62,2.68,2.68,0,0,0,.78.34,3.25,3.25,0,0,0,.72.13,2.53,2.53,0,0,0,.55,0,1.92,1.92,0,0,0,.55-.1,1.31,1.31,0,0,0,.43-.25.7.7,0,0,0,.2-.47c0-.24-.15-.46-.51-.65a11.84,11.84,0,0,0-1.35-.56l-1.77-.65a7.57,7.57,0,0,1-1.76-.93,4.85,4.85,0,0,1-1.32-1.39,3.4,3.4,0,0,1-.44-2,3.49,3.49,0,0,1,.57-1.8,4.08,4.08,0,0,1,1.25-1.2,5.28,5.28,0,0,1,1.59-.65,5.87,5.87,0,0,1,1.58-.14,7.5,7.5,0,0,1,1.23.2,5.64,5.64,0,0,1,1.15.42,3.84,3.84,0,0,1,1,.67,3.13,3.13,0,0,1,.67,1l.33-1.58,3.42.29-.42,4.77c-1.19-.11-2.37-.21-3.56-.3a2.12,2.12,0,0,0-.12-1,2,2,0,0,0-.49-.73,2.25,2.25,0,0,0-.78-.49,3.12,3.12,0,0,0-1-.22,1.81,1.81,0,0,0-.46,0,2.27,2.27,0,0,0-.46.16,1,1,0,0,0-.36.29.78.78,0,0,0-.16.43,1,1,0,0,0,.53.86,8.62,8.62,0,0,0,1.4.71l1.82.77a9.72,9.72,0,0,1,1.8,1,4.74,4.74,0,0,1,1.33,1.35,3,3,0,0,1,.41,1.92,3.51,3.51,0,0,1-.64,1.83,4,4,0,0,1-1.33,1.14,5.16,5.16,0,0,1-1.7.56,8.45,8.45,0,0,1-1.8.07l-.31,0-.32-.05-.11.22a1.71,1.71,0,0,1,1,.53A1.29,1.29,0,0,1,128.86,150.48Z" transform="translate(-12.83 -8.45)"/><path class="cls-4" d="M149.91,140.75c-.07.21-.14.44-.23.68s-.16.48-.24.71l-.24.62q-.12.28-.18.45-1.49,3.56-2.94,7.11c-1.34-.16-2.68-.32-4-.46-.43-2.6-.89-5.2-1.35-7.8a3.41,3.41,0,0,1-.06-.38c0-.18,0-.37-.06-.59s0-.45-.05-.7,0-.49,0-.73h-.08l-.78,7.47,1.11.12-.27,2.45c-1.73-.19-3.47-.36-5.22-.53.08-.81.16-1.63.23-2.45l1,.1.81-8.36-1-.1c.08-.82.15-1.64.23-2.45q3.78.34,7.54.77c.4,2.44.8,4.88,1.18,7.32q1.35-3.44,2.73-6.86,3.78.47,7.56,1c-.11.81-.23,1.63-.34,2.44l-1.08-.15c-.38,2.77-.77,5.54-1.15,8.31l1.07.14-.35,2.46q-3-.42-6.07-.81c.1-.81.21-1.63.31-2.45l1.1.13c.32-2.47.63-4.95.95-7.43Z" transform="translate(-12.83 -8.45)"/><path class="cls-4" d="M157.55,138.41q6,.85,11.93,1.9l-.72,4.15q-1.69-.3-3.39-.57c.1-.56.19-1.12.28-1.68l-3.14-.51-.42,2.6,3.72.6-.42,2.5-3.69-.6c-.16,1-.33,2-.49,3.07l3.09.5c.09-.58.19-1.16.29-1.75l3.34.57c-.25,1.42-.49,2.83-.74,4.25q-5.76-1-11.55-1.85l.36-2.51,1.22.18c.4-2.73.81-5.45,1.21-8.18l-1.24-.18Z" transform="translate(-12.83 -8.45)"/><path class="cls-4" d="M53.32,176.26,52.17,168h2l.71,7.24.72-7.24h2l-1.16,8.26Z" transform="translate(-12.83 -8.45)"/><path class="cls-4" d="M63.23,174a5.6,5.6,0,0,1-.09,1.21,1.33,1.33,0,0,1-.33.62,1.36,1.36,0,0,1-.63.38,9.35,9.35,0,0,1-2.86,0,1.36,1.36,0,0,1-.63-.38,1.46,1.46,0,0,1-.33-.63,5,5,0,0,1-.1-1.2v-3.81a5,5,0,0,1,.1-1.2,1.41,1.41,0,0,1,.33-.63,1.38,1.38,0,0,1,.68-.38,8,8,0,0,1,2.76,0,1.34,1.34,0,0,1,.67.38,1.54,1.54,0,0,1,.34.63,5.69,5.69,0,0,1,.09,1.2Zm-2,.27V170a.71.71,0,0,0-.11-.46.53.53,0,0,0-.41-.12.54.54,0,0,0-.41.12.72.72,0,0,0-.1.46v4.35a.74.74,0,0,0,.1.47.59.59,0,0,0,.41.11.57.57,0,0,0,.41-.11A.73.73,0,0,0,61.27,174.31Z" transform="translate(-12.83 -8.45)"/><path class="cls-4" d="M64.34,176.26V168h1.92v6.78h1.82v1.48Z" transform="translate(-12.83 -8.45)"/><path class="cls-4" d="M68.71,176.26V168h3.63v1.48H70.63v1.83h1.6v1.42h-1.6v2.05H72.5v1.48Z" transform="translate(-12.83 -8.45)"/><path class="cls-4" d="M74.49,176.26v-2.68L72.78,168h2l.79,3.74.75-3.74h1.81l-1.67,5.58v2.68Z" transform="translate(-12.83 -8.45)"/><path class="cls-4" d="M83.68,174.54a1.63,1.63,0,0,1-.47,1.35,3.22,3.22,0,0,1-1.88.37H78.67V168h2.57a3.23,3.23,0,0,1,1.88.38,1.61,1.61,0,0,1,.47,1.35v.73a1.56,1.56,0,0,1-.3,1,1.7,1.7,0,0,1-1,.47,1.38,1.38,0,0,1,1,.44,1.82,1.82,0,0,1,.35,1.21Zm-3.11-3.16h.53a.69.69,0,0,0,.48-.12.75.75,0,0,0,.11-.47v-.73a.75.75,0,0,0-.11-.47.64.64,0,0,0-.48-.13h-.53Zm0,1.28v2.15h.58a.68.68,0,0,0,.47-.12.7.7,0,0,0,.12-.47v-1a.7.7,0,0,0-.12-.47.63.63,0,0,0-.47-.13Z" transform="translate(-12.83 -8.45)"/><path class="cls-4" d="M89.83,174a5.6,5.6,0,0,1-.09,1.21,1.54,1.54,0,0,1-.33.62,1.36,1.36,0,0,1-.63.38,9.35,9.35,0,0,1-2.86,0,1.34,1.34,0,0,1-1-1,5,5,0,0,1-.1-1.2v-3.81A5.69,5.69,0,0,1,85,169a1.54,1.54,0,0,1,.34-.63A1.34,1.34,0,0,1,86,168a5.68,5.68,0,0,1,1.39-.12,5.58,5.58,0,0,1,1.38.12,1.39,1.39,0,0,1,.67.38,1.41,1.41,0,0,1,.33.63,5,5,0,0,1,.1,1.2Zm-2,.27V170a.72.72,0,0,0-.1-.46.76.76,0,0,0-.82,0,.71.71,0,0,0-.11.46v4.35a.73.73,0,0,0,.11.47.82.82,0,0,0,.82,0A.74.74,0,0,0,87.86,174.31Z" transform="translate(-12.83 -8.45)"/><path class="cls-4" d="M90.94,176.26V168h1.92v6.78h1.82v1.48Z" transform="translate(-12.83 -8.45)"/><path class="cls-4" d="M97.72,176.26,99,168H102l1.26,8.26h-2l-.22-2H99.87l-.23,2Zm2.32-3.4h.87l-.42-3.9Z" transform="translate(-12.83 -8.45)"/><path class="cls-4" d="M104.06,176.26V168h1.87v3.57l1.26-3.57h2l-1.58,3.89,1.83,4.37h-2l-1.48-3.76v3.76Z" transform="translate(-12.83 -8.45)"/><path class="cls-4" d="M109.5,176.26l1.23-8.26h3.07l1.27,8.26h-2l-.23-2h-1.22l-.22,2Zm2.33-3.4h.87l-.42-3.9Z" transform="translate(-12.83 -8.45)"/><path class="cls-4" d="M115.84,176.26V168h2.44a2.83,2.83,0,0,1,2,.52,3,3,0,0,1,.51,2v3.13a3,3,0,0,1-.51,2,2.78,2.78,0,0,1-2,.52Zm3-2V170a.71.71,0,0,0-.1-.45.57.57,0,0,0-.41-.11h-.51v5.31h.51a.59.59,0,0,0,.41-.11A.71.71,0,0,0,118.79,174.23Z" transform="translate(-12.83 -8.45)"/><path class="cls-4" d="M121.88,176.26V168h3.62v1.48h-1.7v1.83h1.6v1.42h-1.6v2.05h1.87v1.48Z" transform="translate(-12.83 -8.45)"/><path class="cls-4" d="M126.6,176.26V168h2.79l1.1,6.52,1.16-6.52h2.74v8.26h-1.74l.12-7-1.28,7h-2.13l-1.24-7,.14,7Z" transform="translate(-12.83 -8.45)"/><path class="cls-4" d="M137.58,176.26h-1.92V168h1.92ZM136,167v-1.43h1.31V167Z" transform="translate(-12.83 -8.45)"/><path class="cls-3" d="M145.3,56.4a10.24,10.24,0,0,1,1.4,7.32l1.43,1.46a15.77,15.77,0,0,1,2.08,1.95c.77,1.27-.13.68,1.23,1.8a27.4,27.4,0,0,1,6.32,7.45,37,37,0,0,0,3.08,3.87A55.94,55.94,0,0,0,153,69.68a18.94,18.94,0,0,1-1.67-2c-.23-.37-.46-.69-.73-1l-3.23-4.38s.28-4.64-2.06-5.84" transform="translate(-12.83 -8.45)"/><path class="cls-3" d="M146.35,69.87l2.51-2.5.12.94a10.26,10.26,0,0,0,1.43,1.41c.38.3.79.54,1.19.85a13.9,13.9,0,0,1,3.51,3.92c.54.81,1.34,2,1.93,2.82.75,1.06,1.74,2.32,2.73,3.45a20.94,20.94,0,0,0,3.82,3.72,8.28,8.28,0,0,1,1.95,2.17,22.68,22.68,0,0,0,2.61,3.6c.95.91-3.88,1-4.23-3.21,0,0,0-1.11-1.65-2.54a70.45,70.45,0,0,1-7.52-6.81,31.3,31.3,0,0,1-2.29-2.6c-.79-1-2-2.55-2.78-3.74-.31-.46-.45-.87-.72-1.3s-.6-.35-.47.15.26.93.38,1.28l.51,1.62Z" transform="translate(-12.83 -8.45)"/><path class="cls-4" d="M106.27,65.36c-.3.11-.55.18-.81.25q-2.85.69-5.76,1.2a2.17,2.17,0,0,0-1.53,1.06,67.43,67.43,0,0,0-3.46,6.5,1.61,1.61,0,0,0,0,1.39H89.19a70.59,70.59,0,0,1,3-10.28,2.33,2.33,0,0,0-.16-2c-1.17-2.08-2.42-4.11-3.79-6.07a2.07,2.07,0,0,0-.71-.67.72.72,0,0,0-.93.1,27.43,27.43,0,0,0-5.92,7.66,17.06,17.06,0,0,0-1.71,11.24h-.86c-.09,0-.11-.18-.13-.24a17.71,17.71,0,0,1-.48-8.85,23.85,23.85,0,0,1,2.25-6.48,31.49,31.49,0,0,1,3-4.71A8.85,8.85,0,0,0,84,53.56a1,1,0,0,0-.33-1.4,8.79,8.79,0,0,0-1.28-.88c-.83-.46-2.63-.69-4.48,1.16a12,12,0,0,0-3.16,5.9,22.06,22.06,0,0,0-.27,9.8A17.23,17.23,0,0,0,74.82,70a26.72,26.72,0,0,0,2.5,5.78H75.17A30.23,30.23,0,0,1,73.52,72a24.49,24.49,0,0,1-.23-15.44,23.16,23.16,0,0,1,3.45-6.88,24.37,24.37,0,0,1,26.61-9.11,24.34,24.34,0,0,1,17.44,25.18,23.93,23.93,0,0,1-2.76,9.6,2.61,2.61,0,0,1-.17.28c-.07,0-.12.16-.24.15-.66,0-1.06,0-2,0a20.52,20.52,0,0,0,2.1-4.59c-.3.47-.58.94-.9,1.38A20.91,20.91,0,0,1,114,75.76h-3s.56-.2.61-.22a16.75,16.75,0,0,0,6.53-5.68,1.64,1.64,0,0,0,.26-.59,22.28,22.28,0,0,0,.44-8.45,21.39,21.39,0,0,0-.55-2.69c-.17.15-.16.33-.21.47A7.21,7.21,0,0,1,114.86,62a19.4,19.4,0,0,1-2.22,1.15c-.82.36-1.64.72-2.48,1-1.06.36-2.13.66-3.19,1ZM82.17,46.6a6.53,6.53,0,0,0-1.28,1.24,8.69,8.69,0,0,1,3.28.47,18,18,0,0,1,5,3.16,62.2,62.2,0,0,1,7.85,8.05,2.4,2.4,0,0,0,1.9.89c2.35,0,4.69,0,7-.24a2.36,2.36,0,0,0,.9-.24.76.76,0,0,0,.44-1,29.77,29.77,0,0,0-1-3.26,22,22,0,0,0-5.89-9.35,22,22,0,0,0-5.86-3.38,9.46,9.46,0,0,0-5.15-.57C86.53,42.84,83.61,45.41,82.17,46.6Zm33.51,7.86a11.08,11.08,0,0,0-1-3,12.26,12.26,0,0,0-2.5-3.7,22.14,22.14,0,0,0-18.81-6.17,4.13,4.13,0,0,0-.6.15,19.48,19.48,0,0,1,6.63,1.66,24.31,24.31,0,0,1,7.85,7,32.13,32.13,0,0,1,3.6,6.68C112.55,60.06,116.32,57.88,115.68,54.46Z" transform="translate(-12.83 -8.45)"/><path class="cls-4" d="M77.38,54.92l0,.06,0,0Z" transform="translate(-12.83 -8.45)"/><path class="cls-3" d="M176,61.17a9.61,9.61,0,1,1-9.6,9.61,9.61,9.61,0,0,1,9.6-9.61" transform="translate(-12.83 -8.45)"/><path class="cls-5" d="M179.54,75.91a12.54,12.54,0,0,0-1.26-2.51,16.62,16.62,0,0,0-2-2.47,16.39,16.39,0,0,1,1.08-2.78,9.57,9.57,0,0,1,3.36,3.22,9.86,9.86,0,0,1,1.53,4.81A8.33,8.33,0,0,1,180,78a8.09,8.09,0,0,0-.44-2.13m-11.79-4.14a8.63,8.63,0,0,1-.05-1.24,7.55,7.55,0,0,0,2.46.89h0a12.05,12.05,0,0,0,2.8.17q.53,0,1.05-.09a20.11,20.11,0,0,0,2.09-.39A17.93,17.93,0,0,1,178,73.43a9.49,9.49,0,0,1-4.71,1.31,9.92,9.92,0,0,1-5.15-1.33,8.29,8.29,0,0,1-.37-1.64m12.9-7.85a7.62,7.62,0,0,0-1.91,1.64,12,12,0,0,0-1.54,2.34A16.93,16.93,0,0,0,176,70.85a16.43,16.43,0,0,1-2.94.46,9.5,9.5,0,0,1,1.23-4.76,10,10,0,0,1,3.77-3.79,8.51,8.51,0,0,1,2.55,1.16m.31,7.3a9.77,9.77,0,0,0-3.46-3.31,11.49,11.49,0,0,1,1.38-2.11,8.89,8.89,0,0,1,3.2,2.26,10.45,10.45,0,0,1,2.14,3.64,8.18,8.18,0,0,1-1.7,4.18A10.13,10.13,0,0,0,181,71.22m3.25-1.44a9.21,9.21,0,0,1,.06,1.28,10.62,10.62,0,0,0-2-3.18,9,9,0,0,0-3.2-2.29,7.6,7.6,0,0,1,1.82-1.5l.21.16a8.23,8.23,0,0,1,3.11,5.53m-6.49-7.11a10.18,10.18,0,0,0-3.62,3.75,9.72,9.72,0,0,0-1.27,4.9,12.06,12.06,0,0,1-2.52-.14,9.87,9.87,0,0,1,3.13-8.3,8.54,8.54,0,0,1,4.28-.21m-8.26,3a8.27,8.27,0,0,1,3.39-2.56,10,10,0,0,0-2.81,8,7,7,0,0,1-2.33-.9,8.27,8.27,0,0,1,1.75-4.56m-1.2,8.13a10.13,10.13,0,0,0,5,1.22c.36,0,.71,0,1.06-.07a9.68,9.68,0,0,0,3.79-1.28,11.85,11.85,0,0,1,1.13,2.25,9.73,9.73,0,0,1-8.08,1.61,3.3,3.3,0,0,1-.3-.22,8.2,8.2,0,0,1-2.61-3.51m3.51,4.12a10.42,10.42,0,0,0,3,.07,9.32,9.32,0,0,0,4.57-1.8,7,7,0,0,1,.38,2,8.26,8.26,0,0,1-7.95-.27" transform="translate(-12.83 -8.45)"/><path class="cls-3" d="M32.77,8.45a9.61,9.61,0,1,1-9.61,9.61,9.6,9.6,0,0,1,9.61-9.61" transform="translate(-12.83 -8.45)"/><path class="cls-5" d="M36.32,23.19a11.73,11.73,0,0,0-1.26-2.5,16.07,16.07,0,0,0-2-2.48,16.39,16.39,0,0,1,1.08-2.78,9.49,9.49,0,0,1,3.36,3.22,9.86,9.86,0,0,1,1.53,4.81,8.14,8.14,0,0,1-2.28,1.86,7.74,7.74,0,0,0-.45-2.13M24.54,19.05a8.65,8.65,0,0,1-.06-1.24A7.47,7.47,0,0,0,27,18.7h0a12.11,12.11,0,0,0,2.81.17l1-.09a17.62,17.62,0,0,0,2.08-.39,17.36,17.36,0,0,1,1.87,2.33A9.56,9.56,0,0,1,30.05,22a9.88,9.88,0,0,1-5.15-1.33,9,9,0,0,1-.36-1.64m12.89-7.84a7.18,7.18,0,0,0-1.9,1.63A12,12,0,0,0,34,15.18a16.75,16.75,0,0,0-1.15,2.95,16.67,16.67,0,0,1-2.95.46,9.45,9.45,0,0,1,1.24-4.75A9.83,9.83,0,0,1,34.89,10a8.14,8.14,0,0,1,2.54,1.17m.32,7.3a9.74,9.74,0,0,0-3.47-3.32,11.86,11.86,0,0,1,1.39-2.11,9,9,0,0,1,3.19,2.26A10.48,10.48,0,0,1,41,19a8.28,8.28,0,0,1-1.71,4.18,10.2,10.2,0,0,0-1.55-4.65M41,17.06a7.88,7.88,0,0,1,0,1.28,10.59,10.59,0,0,0-2-3.18,9.14,9.14,0,0,0-3.21-2.29,7.32,7.32,0,0,1,1.82-1.49l.21.16A8.22,8.22,0,0,1,41,17.06M34.51,10a10.16,10.16,0,0,0-3.63,3.76,9.87,9.87,0,0,0-1.27,4.9,12.65,12.65,0,0,1-2.51-.15,9.84,9.84,0,0,1,3.13-8.3,8.71,8.71,0,0,1,1.55-.33,8.32,8.32,0,0,1,2.73.12m-8.26,3a8.24,8.24,0,0,1,3.38-2.56,10.08,10.08,0,0,0-2.81,8,7,7,0,0,1-2.33-.9,8.21,8.21,0,0,1,1.76-4.56M25,21.07a10.16,10.16,0,0,0,5,1.22c.35,0,.71,0,1.05-.07a9.73,9.73,0,0,0,3.8-1.28A11.49,11.49,0,0,1,36,23.19,9.72,9.72,0,0,1,28,24.8l-.3-.22A8.28,8.28,0,0,1,25,21.07m3.51,4.13a10.86,10.86,0,0,0,3,.06,9.36,9.36,0,0,0,4.57-1.8,7.82,7.82,0,0,1,.38,2,8.32,8.32,0,0,1-8-.26" transform="translate(-12.83 -8.45)"/></svg>